<?xml version="1.0" encoding="iso-8859-1"?>
<!-- Generator: Adobe Illustrator 18.0.0, SVG Export Plug-In . SVG Version: 6.00 Build 0)  -->
<!DOCTYPE svg PUBLIC "-//W3C//DTD SVG 1.1//EN" "http://www.w3.org/Graphics/SVG/1.1/DTD/svg11.dtd">
<svg version="1.1" xmlns="http://www.w3.org/2000/svg" xmlns:xlink="http://www.w3.org/1999/xlink" x="0px" y="0px"
	 viewBox="0 0 151.554 174.887" style="enable-background:new 0 0 151.554 174.887;" xml:space="preserve">
<g id="polygon">
	<line style="fill:none;" x1="-1888.556" y1="25.826" x2="-1868.032" y2="26.699"/>
	<line style="fill:none;" x1="-1906.46" y1="18.403" x2="-1874.801" y2="18.184"/>
	<text transform="matrix(1 0 0 1 -1902.0934 104.4288)" style="font-family:'Silom'; font-size:72;">BU</text>
	<line style="fill:none;" x1="-1260.999" y1="58.51" x2="-1205.446" y2="60.874"/>
	<line style="fill:none;" x1="-1309.46" y1="38.416" x2="-1223.767" y2="37.825"/>
	<text transform="matrix(1 0 0 1 -1303.0292 94.6093)" style="font-family:'Silom'; font-size:56.8413;">B</text>
	<text transform="matrix(-1 0 0 1 -1160.4911 94.6103)"><tspan x="0" y="0" style="fill:#CE0045; font-family:'Silom'; font-size:56.8413;">U</tspan><tspan x="37.913" y="0" style="fill:#CE0045; font-family:'Silom'; font-size:24.3606;">sable</tspan></text>
	<text transform="matrix(1 0 0 1 -1268.2782 69.475)" style="font-family:'Silom'; font-size:24.3606;">arely</text>
	<polygon style="fill:#231F20;" points="-854.903,137.249 -855,49.806 -779.32,6 -703.543,49.638 -703.446,137.081 
		-779.126,180.887 	"/>
	<polygon style="fill:#231F20;" points="-555.903,137.249 -556,49.806 -480.32,6 -404.543,49.638 -404.446,137.081 
		-480.126,180.887 	"/>
</g>
<g id="my_x5F_sketch" style="display:none;">
	
		<image style="display:inline;overflow:visible;" width="1213" height="775" xlink:href="2015MAY06_barelyusable_logo_sketch.JPG"  transform="matrix(0.2094 0 0 0.2094 -970.4465 28.2235)">
	</image>
</g>
<g id="photo" style="display:none;">
	<g id="M9PUFC.tif" style="display:inline;opacity:0.3;">
		
			<image style="overflow:visible;" width="479" height="368" id="Layer_0_1_" xlink:href="22D6093386C6CF07.png"  transform="matrix(0.2534 0 0 0.2534 -837.7917 42.9782)">
		</image>
	</g>
	<g id="M9PUFC.tif_2_" style="display:inline;opacity:0.3;">
		
			<image style="overflow:visible;" width="479" height="368" id="Layer_0_3_" xlink:href="22D6093386C6CF19.png"  transform="matrix(0.2534 0 0 0.2534 -538.7917 42.9782)">
		</image>
	</g>
</g>
<g id="ball">
	<path style="fill:#FFFFFF;stroke:#FFFFFF;stroke-miterlimit:10;" d="M-749.975,72.724h-49.392c-3.652,3-6.624,6.803-8.683,11.116
		s-3.204,9.139-3.204,14.185c0,10.405,4.87,19.643,12.575,25.977c1.122,0.922,2.303,1.734,3.539,2.523
		c5.842,3.732,12.886,5.888,20.47,5.888c20.204,0,36.583-15.295,36.583-34.377C-738.088,87.945-742.67,78.724-749.975,72.724z"/>
	<path style="fill:none;stroke:#FFFFFF;stroke-miterlimit:10;" d="M-807.582,114.971c-4.585,0.788-20.63-5.911-21.204-27.586
		c-0.573-21.675,20.057-28.111,20.057-28.111s16.333-4.86,20.057,6.568"/>
	<ellipse style="fill:#FFFFFF;stroke:#FFFFFF;stroke-miterlimit:10;" cx="-774.895" cy="68.224" rx="23.401" ry="2.5"/>
	<path style="fill:none;stroke:#FFFFFF;stroke-miterlimit:10;" d="M-798.462,68.224"/>
	<path style="fill:none;stroke:#FFFFFF;stroke-miterlimit:10;" d="M-798.296,68.224c-0.167,3.792,2.067,2.548-1.071,5.5
		L-798.296,68.224z"/>
	<path style="fill:none;stroke:#FFFFFF;stroke-miterlimit:10;" d="M-751.493,68.224c0.236,3.792-2.93,2.548,1.518,5.5"/>
	<ellipse style="fill:none;stroke:#FFFFFF;stroke-miterlimit:10;" cx="-775.337" cy="54.474" rx="5.583" ry="0.583"/>
	<line style="fill:none;stroke:#FFFFFF;stroke-miterlimit:10;" x1="-780.921" y1="54.474" x2="-779.421" y2="65.771"/>
	<line style="fill:none;stroke:#FFFFFF;stroke-miterlimit:10;" x1="-769.754" y1="54.474" x2="-771.421" y2="65.771"/>
	<g id="XMLID_1_">
		<g>
		</g>
		<g>
			<path style="fill:none;stroke:#FFFFFF;stroke-width:0.25;stroke-miterlimit:10;" d="M-720.751,86.144c0,8.83-5.51,16-12.29,16
				c-6.79,0-12.3-7.17-12.3-16c0-8.84,5.51-16,12.3-16C-726.261,70.144-720.751,77.304-720.751,86.144z"/>
		</g>
	</g>
	
		<ellipse style="fill:none;stroke:#FFFFFF;stroke-width:0.25;stroke-miterlimit:10;" cx="-733.212" cy="86.807" rx="17.125" ry="21.667"/>
	<path style="fill:#FFFFFF;stroke:#FFFFFF;stroke-miterlimit:10;" d="M-754.37,129.893c0,3.917-9.296,6.718-20.615,6.262
		c-11.157-0.45-20.084-3.903-20.084-7.72c0-3.817,8.928-6.631,20.084-6.281C-763.667,122.509-754.37,125.975-754.37,129.893z"/>
	<path style="fill:none;stroke:#FFFFFF;stroke-miterlimit:10;" d="M-809.758,89.737c0,0-2.501,6.821-5.002,7.048
		c-2.501,0.227-5.457-3.638-5.457-10.914c0-7.276,2.728-15.916,12.051-20.463c9.322-4.547,12.96,1.592,12.96,1.592"/>
	<path style="fill:#FFFFFF;stroke:#FFFFFF;stroke-miterlimit:10;" d="M-451.975,83.724h-49.392
		c-3.652,2.899-6.624,6.575-8.683,10.744c-2.059,4.169-3.204,8.833-3.204,13.71c0,10.056,4.87,18.985,12.575,25.107
		c1.122,0.891,2.303,1.676,3.539,2.439c5.842,3.606,12.886,5.69,20.47,5.69c20.204,0,36.583-14.782,36.583-33.225
		C-440.088,98.435-444.67,89.522-451.975,83.724z"/>
	<path style="fill:none;stroke:#FFFFFF;stroke-miterlimit:10;" d="M-500.462,77.224"/>
	<g id="XMLID_4_">
		<g>
			<path style="fill:#FFFFFF;" d="M-482.921,63.476h11.17c0,2.35-2.05,9.253-2.05,9.253l-7.5,0.052L-482.921,63.476z"/>
		</g>
		<g>
			<path style="fill:none;stroke:#FFFFFF;stroke-miterlimit:10;" d="M-471.751,63.476c0,2.35-2.05,9.253-2.05,9.253l-7.5,0.052
				l-1.62-9.305H-471.751z"/>
		</g>
	</g>
	<g id="XMLID_3_">
		<g>
			<path style="fill:#FFFFFF;" d="M-476.55,75.469c28.42,0,21.94,5.03,21.94,5.03h-44C-498.61,80.499-504.97,75.469-476.55,75.469z"
				/>
		</g>
		<g>
		</g>
	</g>
	<path style="fill:#FFFFFF;stroke:#FFFFFF;stroke-miterlimit:10;" d="M-457.536,140.529c-5.567,3.099-12.119,4.884-19.135,4.884
		c-7.369,0-14.219-1.98-19.961-5.4c-0.283,0.455-0.437,0.93-0.437,1.422c0,3.817,8.928,7.27,20.084,7.72
		c11.318,0.456,20.615-2.345,20.615-6.262C-456.37,142.076-456.794,141.282-457.536,140.529z"/>
</g>
<g id="accessories">
	<path style="fill:#FFFFFF;" d="M-788.167,81.512c-1.937,0-3.288,0.905-4.061,2.167c-0.591,0.139-1.118,0.364-1.564,0.674
		c-5.623,0.407-5.502,9.98,0.371,9.98c1.049,0,1.909-0.31,2.592-0.814c0.011,0,0.02-0.002,0.031-0.003
		c0.072,0.003,0.14,0.01,0.213,0.01c2.018,0,3.405-0.98,4.16-2.326C-781.803,89.567-782.371,81.512-788.167,81.512z"/>
	<path style="fill:#231F20;" d="M-792.421,83.527c-6,0-6,10,0,10C-785.421,93.527-785.421,83.527-792.421,83.527z"/>
	<path style="fill:#231F20;" d="M-766.421,83.93c-6,0-6,10,0,10S-760.421,83.93-766.421,83.93z"/>
	<path style="fill:#231F20;stroke:#231F20;stroke-width:0.5;stroke-miterlimit:10;" d="M-759.95,112.307
		c0,1.337-8.55,2.213-18.97,1.958c-10.282-0.251-18.519-1.511-18.519-2.816s8.236-2.188,18.519-1.968
		C-768.5,109.703-759.95,110.97-759.95,112.307z"/>
	<path style="fill:#231F20;stroke:#231F20;stroke-width:0.5;stroke-miterlimit:10;" d="M-759.144,115.358
		c0,1.656-4.465,2.879-9.938,2.733c-5.435-0.145-9.814-1.588-9.814-3.223c0-1.635,4.379-2.861,9.814-2.736
		C-763.609,112.257-759.144,113.702-759.144,115.358z"/>
	<path style="fill:#231F20;" d="M-444.823,123.924"/>
	<path style="fill:none;stroke:#FFFFFF;stroke-width:8;stroke-miterlimit:10;" d="M-506.532,123.621"/>
	<path style="fill:none;stroke:#FFFFFF;stroke-width:6;stroke-miterlimit:10;" d="M-439.667,120.478
		c1.458,0.67,3.028,1.069,4.676,1.1c7.521,0.144,13.656-7.035,13.656-16.035s-6.135-16.323-13.656-16.356
		c-2.562-0.011-4.945,0.842-6.981,2.306"/>
	
		<ellipse style="fill:#FFFFFF;stroke:#FFFFFF;stroke-width:0.25;stroke-miterlimit:10;" cx="-477.369" cy="62.88" rx="6.01" ry="1.906"/>
	<path style="fill:none;stroke:#FFFFFF;stroke-width:7;stroke-miterlimit:10;" d="M-511.921,59.89
		c-18-0.059-32.25,13.093-32.25,29.377c0,14.285,11.146,26.608,25.962,29.533"/>
	<path style="fill:#FFFFFF;stroke:#FFFFFF;stroke-width:0.25;stroke-miterlimit:10;" d="M-519.983,121.786
		c6.188,2.25,11.437,6.938,11.437,6.938s-4.338-5.558-5.214-7.75c-0.52-1.302-1.634-5.25-1.634-5.25l-4.151-0.562
		C-519.546,115.161-524.785,120.04-519.983,121.786z"/>
	<circle style="fill:#FFFFFF;stroke:#FFFFFF;stroke-width:0.25;stroke-miterlimit:10;" cx="-511.671" cy="59.974" r="4.5"/>
	<path style="fill:#FFFFFF;stroke:#FFFFFF;stroke-width:0.25;stroke-miterlimit:10;" d="M-515.233,116.286
		c-2.25-13,1.062-18.562,1.062-18.562s-29.625,14.75-26.333-12.75l-3.417,11.625l12.125,15.75l16.401,3.375"/>
	<polygon style="fill:#FFFFFF;stroke:#FFFFFF;stroke-width:0.25;stroke-miterlimit:10;" points="-531.796,116.849 -508.546,128.724 
		-523.608,112.599 	"/>
	<circle style="fill:#FFFFFF;stroke:#FFFFFF;stroke-width:0.25;stroke-miterlimit:10;" cx="-458.421" cy="70.224" r="2.5"/>
	<circle style="fill:#FFFFFF;stroke:#FFFFFF;stroke-width:0.25;stroke-miterlimit:10;" cx="-452.421" cy="67.224" r="2.5"/>
	<circle style="fill:#FFFFFF;stroke:#FFFFFF;stroke-width:0.25;stroke-miterlimit:10;" cx="-446.546" cy="60.099" r="3.375"/>
	<circle style="fill:#FFFFFF;stroke:#FFFFFF;stroke-width:0.25;stroke-miterlimit:10;" cx="-453.046" cy="50.599" r="3.875"/>
	<circle style="fill:#FFFFFF;stroke:#FFFFFF;stroke-width:0.25;stroke-miterlimit:10;" cx="-498.671" cy="36.974" r="12.25"/>
	<circle style="fill:#FFFFFF;stroke:#FFFFFF;stroke-width:0.25;stroke-miterlimit:10;" cx="-481.671" cy="29.974" r="12.25"/>
	
		<ellipse style="fill:#FFFFFF;stroke:#FFFFFF;stroke-width:0.25;stroke-miterlimit:10;" cx="-483.671" cy="46.099" rx="12.25" ry="5.125"/>
	<circle style="fill:#FFFFFF;stroke:#FFFFFF;stroke-width:0.25;stroke-miterlimit:10;" cx="-465.671" cy="36.974" r="12.25"/>
	<path style="fill:#FFFFFF;stroke:#FFFFFF;stroke-width:0.25;stroke-miterlimit:10;" d="M-537.754,77.724c0,0-6.917,27.75,23.583,20
		l-14.917,10.833l-17-15.833L-537.754,77.724z"/>
</g>
<g id="eyes_x5F_mouth">
	<ellipse style="fill:#231F20;stroke:#FFFFFF;stroke-miterlimit:10;" cx="-483.671" cy="107.349" rx="6" ry="6.375"/>
	<ellipse style="fill:#FFFFFF;stroke:#FFFFFF;stroke-miterlimit:10;" cx="-484.421" cy="104.099" rx="2.25" ry="2.625"/>
	<ellipse style="fill:#231F20;stroke:#FFFFFF;stroke-miterlimit:10;" cx="-467.671" cy="107.349" rx="6" ry="6.375"/>
	<ellipse style="fill:#FFFFFF;stroke:#FFFFFF;stroke-miterlimit:10;" cx="-468.421" cy="104.099" rx="2.25" ry="2.625"/>
	<path style="fill:#231F20;stroke:#FFFFFF;stroke-width:0.25;stroke-miterlimit:10;" d="M-491.441,101.527
		c1.343-2.334,0.266-10.56,9.421-7.433"/>
	<path style="fill:#231F20;stroke:#FFFFFF;stroke-width:0.25;stroke-miterlimit:10;" d="M-466.421,94.224c2,2.5,9-8,9,8"/>
	<path style="fill:#231F20;stroke:#FFFFFF;stroke-miterlimit:10;" d="M-405.421,146.349"/>
	<path style="fill:#231F20;stroke:#FFFFFF;stroke-width:0.25;stroke-miterlimit:10;" d="M-461.046,124.474"/>
	<path style="fill:#231F20;stroke:#FFFFFF;stroke-width:0.25;stroke-miterlimit:10;" d="M-486.671,123.849l26.625-0.625
		c0,0,4.875,2.625,0.375,6.375S-486.671,123.849-486.671,123.849z"/>
	<polygon style="fill:#231F20;" points="0.097,131.249 0,43.806 75.68,0 151.457,43.638 151.554,131.081 75.874,174.887 	"/>
	<path style="fill:#FFFFFF;stroke:#FFFFFF;stroke-miterlimit:10;" d="M104.025,77.724H54.633c-3.652,2.899-6.624,6.575-8.683,10.744
		s-3.204,8.833-3.204,13.71c0,10.056,4.87,18.985,12.575,25.107c1.122,0.891,2.303,1.676,3.539,2.439
		c5.842,3.606,12.886,5.69,20.47,5.69c20.204,0,36.583-14.782,36.583-33.225C115.912,92.435,111.33,83.522,104.025,77.724z"/>
	<path style="fill:none;stroke:#FFFFFF;stroke-miterlimit:10;" d="M55.538,71.224"/>
	<g id="XMLID_5_">
		<g>
			<path style="fill:#FFFFFF;" d="M73.083,57.473h11.17c0,2.35-2.05,9.253-2.05,9.253l-7.5,0.052L73.083,57.473z"/>
		</g>
		<g>
			<path style="fill:none;stroke:#FFFFFF;stroke-miterlimit:10;" d="M84.253,57.473c0,2.35-2.05,9.253-2.05,9.253l-7.5,0.052
				l-1.62-9.305H84.253z"/>
		</g>
	</g>
	<g id="XMLID_2_">
		<g>
			<path style="fill:#FFFFFF;" d="M79.454,69.473c28.42,0,21.94,5.03,21.94,5.03h-44C57.394,74.503,51.034,69.473,79.454,69.473z"/>
		</g>
		<g>
		</g>
	</g>
	<path style="fill:#FFFFFF;stroke:#FFFFFF;stroke-miterlimit:10;" d="M98.464,134.529c-5.567,3.099-12.119,4.884-19.135,4.884
		c-7.369,0-14.219-1.98-19.961-5.4c-0.283,0.455-0.437,0.93-0.437,1.422c0,3.817,8.928,7.27,20.084,7.72
		c11.318,0.456,20.615-2.345,20.615-6.262C99.63,136.076,99.206,135.282,98.464,134.529z"/>
	<path style="fill:#231F20;" d="M111.177,117.924"/>
	<path style="fill:none;stroke:#FFFFFF;stroke-width:8;stroke-miterlimit:10;" d="M49.468,117.621"/>
	<path style="fill:none;stroke:#FFFFFF;stroke-width:6;stroke-miterlimit:10;" d="M116.333,114.478
		c1.458,0.67,3.028,1.069,4.676,1.1c7.521,0.144,13.656-7.035,13.656-16.035s-6.135-16.323-13.656-16.356
		c-2.562-0.011-4.945,0.842-6.981,2.306"/>
	
		<ellipse style="fill:#FFFFFF;stroke:#FFFFFF;stroke-width:0.25;stroke-miterlimit:10;" cx="78.631" cy="56.88" rx="6.01" ry="1.906"/>
	<path style="fill:none;stroke:#FFFFFF;stroke-width:7;stroke-miterlimit:10;" d="M44.079,53.89
		c-18-0.059-32.25,13.093-32.25,29.377c0,14.285,11.146,26.608,25.962,29.533"/>
	<path style="fill:#FFFFFF;stroke:#FFFFFF;stroke-width:0.25;stroke-miterlimit:10;" d="M36.017,115.786
		c6.188,2.25,11.438,6.938,11.438,6.938s-4.338-5.558-5.214-7.75c-0.52-1.302-1.634-5.25-1.634-5.25l-4.152-0.562
		C36.454,109.161,31.215,114.04,36.017,115.786z"/>
	<circle style="fill:#FFFFFF;stroke:#FFFFFF;stroke-width:0.25;stroke-miterlimit:10;" cx="44.329" cy="53.974" r="4.5"/>
	<circle style="fill:#FFFFFF;stroke:#FFFFFF;stroke-width:0.25;stroke-miterlimit:10;" cx="97.579" cy="64.224" r="2.5"/>
	<circle style="fill:#FFFFFF;stroke:#FFFFFF;stroke-width:0.25;stroke-miterlimit:10;" cx="103.579" cy="61.224" r="2.5"/>
	<circle style="fill:#FFFFFF;stroke:#FFFFFF;stroke-width:0.25;stroke-miterlimit:10;" cx="109.454" cy="54.099" r="3.375"/>
	<circle style="fill:#FFFFFF;stroke:#FFFFFF;stroke-width:0.25;stroke-miterlimit:10;" cx="102.954" cy="44.599" r="3.875"/>
	<path style="fill:#FFFFFF;stroke:#FFFFFF;stroke-width:0.25;stroke-miterlimit:10;" d="M90.329,18.724
		c-1.615,0-3.152,0.32-4.564,0.888c-1.76-4.609-6.209-7.888-11.436-7.888c-5.373,0-9.927,3.464-11.579,8.277
		c-1.636-0.81-3.472-1.277-5.421-1.277c-6.766,0-12.25,5.484-12.25,12.25s5.484,12.25,12.25,12.25c1.463,0,2.86-0.27,4.161-0.74
		c2.052,1.629,6.132,2.74,10.839,2.74c5.596,0,10.305-1.572,11.77-3.716c1.827,1.083,3.952,1.716,6.23,1.716
		c6.766,0,12.25-5.484,12.25-12.25S97.095,18.724,90.329,18.724z M79.082,35.824c-0.292-0.081-0.59-0.158-0.899-0.228
		c0.24-0.08,0.477-0.166,0.711-0.26C78.956,35.499,79.013,35.664,79.082,35.824z M68.908,34.946
		c0.132,0.065,0.263,0.131,0.397,0.191c-0.162,0.017-0.327,0.032-0.486,0.052C68.848,35.109,68.88,35.028,68.908,34.946z"/>
	<path style="fill:#FFFFFF;stroke:#FFFFFF;stroke-width:0.25;stroke-miterlimit:10;" d="M47.454,122.724l-13.403-14.349l6.555,1.349
		l0.161,0.562c-2.25-13,1.062-18.562,1.062-18.562c-30.5,7.75-23.583-20-23.583-20l-8.333,15l2.595,2.417l-0.428,1.458l12.125,15.75
		l6.208,1.277l-6.208,3.223L47.454,122.724z"/>
	<ellipse style="fill:#231F20;stroke:#FFFFFF;stroke-miterlimit:10;" cx="72.329" cy="101.349" rx="6" ry="6.375"/>
	<ellipse style="fill:#FFFFFF;stroke:#FFFFFF;stroke-miterlimit:10;" cx="71.579" cy="98.099" rx="2.25" ry="2.625"/>
	<ellipse style="fill:#231F20;stroke:#FFFFFF;stroke-miterlimit:10;" cx="88.329" cy="101.349" rx="6" ry="6.375"/>
	<ellipse style="fill:#FFFFFF;stroke:#FFFFFF;stroke-miterlimit:10;" cx="87.579" cy="98.099" rx="2.25" ry="2.625"/>
	<path style="fill:#231F20;stroke:#FFFFFF;stroke-width:0.25;stroke-miterlimit:10;" d="M64.559,95.527
		c1.343-2.334,0.266-10.56,9.421-7.433"/>
	<path style="fill:#231F20;stroke:#FFFFFF;stroke-width:0.25;stroke-miterlimit:10;" d="M89.579,88.224c2,2.5,9-8,9,8"/>
	<path style="fill:#231F20;stroke:#FFFFFF;stroke-miterlimit:10;" d="M150.579,140.349"/>
	<path style="fill:#231F20;stroke:#FFFFFF;stroke-width:0.25;stroke-miterlimit:10;" d="M94.954,118.474"/>
	<path style="fill:#231F20;stroke:#FFFFFF;stroke-width:0.25;stroke-miterlimit:10;" d="M69.329,117.849l26.625-0.625
		c0,0,4.875,2.625,0.375,6.375S69.329,117.849,69.329,117.849z"/>
</g>
</svg>
