<?xml version="1.0" encoding="iso-8859-1"?>
<!-- Generator: Adobe Illustrator 18.0.0, SVG Export Plug-In . SVG Version: 6.00 Build 0)  -->
<!DOCTYPE svg PUBLIC "-//W3C//DTD SVG 1.1//EN" "http://www.w3.org/Graphics/SVG/1.1/DTD/svg11.dtd">
<svg version="1.1" xmlns="http://www.w3.org/2000/svg" xmlns:xlink="http://www.w3.org/1999/xlink" x="0px" y="0px"
	 viewBox="0 0 161.914 161.914" style="enable-background:new 0 0 161.914 161.914;" xml:space="preserve">
<g id="polygon" style="display:none;">
	<line style="display:inline;fill:none;" x1="-2464.853" y1="69.074" x2="-2444.329" y2="69.947"/>
	<line style="display:inline;fill:none;" x1="-2482.757" y1="61.65" x2="-2451.098" y2="61.432"/>
	<text transform="matrix(1 0 0 1 -2478.3904 147.6764)" style="display:inline; font-family:'Silom'; font-size:72;">BU</text>
	<line style="display:inline;fill:none;" x1="-1837.296" y1="101.757" x2="-1781.743" y2="104.121"/>
	<line style="display:inline;fill:none;" x1="-1885.757" y1="81.664" x2="-1800.064" y2="81.073"/>
	<text transform="matrix(1 0 0 1 -1879.326 137.8569)" style="display:inline; font-family:'Silom'; font-size:56.8413;">B</text>
	<text transform="matrix(-1 0 0 1 -1736.7881 137.8578)" style="display:inline;"><tspan x="0" y="0" style="fill:#CE0045; font-family:'Silom'; font-size:56.8413;">U</tspan><tspan x="37.913" y="0" style="fill:#CE0045; font-family:'Silom'; font-size:24.3606;">sable</tspan></text>
	<text transform="matrix(1 0 0 1 -1844.5752 112.7226)" style="display:inline; font-family:'Silom'; font-size:24.3606;">arely</text>
	<polygon style="display:inline;fill:#231F20;" points="-1431.2,180.497 -1431.297,93.053 -1355.617,49.248 -1279.84,92.885 
		-1279.743,180.329 -1355.423,224.135 	"/>
	<polygon style="display:inline;fill:#231F20;" points="-1132.2,180.497 -1132.297,93.053 -1056.617,49.248 -980.84,92.885 
		-980.743,180.329 -1056.423,224.135 	"/>
</g>
<g id="my_x5F_sketch" style="display:none;">
	
		<image style="display:inline;overflow:visible;" width="1213" height="775" xlink:href="2015MAY06_barelyusable_logo_sketch.JPG"  transform="matrix(0.2094 0 0 0.2094 -1546.7434 71.4711)">
	</image>
</g>
<g id="photo" style="display:none;">
	<g id="M9PUFC.tif" style="display:inline;opacity:0.3;">
		
			<image style="overflow:visible;" width="479" height="368" id="Layer_0_1_" xlink:href="22D6093386C6CF05.png"  transform="matrix(0.2534 0 0 0.2534 -1414.0886 86.2258)">
		</image>
	</g>
	<g id="M9PUFC.tif_2_" style="display:inline;opacity:0.3;">
		
			<image style="overflow:visible;" width="479" height="368" id="Layer_0_3_" xlink:href="22D6093386C6CF1B.png"  transform="matrix(0.2534 0 0 0.2534 -1115.0886 86.2258)">
		</image>
	</g>
</g>
<g id="ball">
	<path style="fill:#FFFFFF;stroke:#FFFFFF;stroke-miterlimit:10;" d="M-1326.272,115.971h-49.392c-3.652,3-6.624,6.803-8.683,11.116
		c-2.059,4.314-3.204,9.139-3.204,14.185c0,10.405,4.87,19.643,12.575,25.977c1.122,0.922,2.303,1.734,3.539,2.523
		c5.842,3.732,12.886,5.888,20.47,5.888c20.204,0,36.583-15.295,36.583-34.377C-1314.385,131.193-1318.967,121.971-1326.272,115.971
		z"/>
	<path style="fill:none;stroke:#FFFFFF;stroke-miterlimit:10;" d="M-1383.879,158.218c-4.585,0.788-20.63-5.911-21.204-27.586
		c-0.573-21.675,20.057-28.111,20.057-28.111s16.332-4.86,20.057,6.568"/>
	<ellipse style="fill:#FFFFFF;stroke:#FFFFFF;stroke-miterlimit:10;" cx="-1351.192" cy="111.471" rx="23.401" ry="2.5"/>
	<path style="fill:none;stroke:#FFFFFF;stroke-miterlimit:10;" d="M-1374.759,111.471"/>
	<path style="fill:none;stroke:#FFFFFF;stroke-miterlimit:10;" d="M-1374.593,111.471c-0.167,3.792,2.067,2.548-1.071,5.5
		L-1374.593,111.471z"/>
	<path style="fill:none;stroke:#FFFFFF;stroke-miterlimit:10;" d="M-1327.79,111.471c0.236,3.792-2.93,2.548,1.518,5.5"/>
	<ellipse style="fill:none;stroke:#FFFFFF;stroke-miterlimit:10;" cx="-1351.634" cy="97.721" rx="5.583" ry="0.583"/>
	<line style="fill:none;stroke:#FFFFFF;stroke-miterlimit:10;" x1="-1357.218" y1="97.721" x2="-1355.718" y2="109.018"/>
	<line style="fill:none;stroke:#FFFFFF;stroke-miterlimit:10;" x1="-1346.051" y1="97.721" x2="-1347.718" y2="109.018"/>
	<g id="XMLID_1_">
		<g>
		</g>
		<g>
			<path style="fill:none;stroke:#FFFFFF;stroke-width:0.25;stroke-miterlimit:10;" d="M-1297.048,129.391c0,8.83-5.51,16-12.29,16
				c-6.79,0-12.3-7.17-12.3-16c0-8.84,5.51-16,12.3-16C-1302.558,113.391-1297.048,120.551-1297.048,129.391z"/>
		</g>
	</g>
	
		<ellipse style="fill:none;stroke:#FFFFFF;stroke-width:0.25;stroke-miterlimit:10;" cx="-1309.509" cy="130.054" rx="17.125" ry="21.667"/>
	<path style="fill:#FFFFFF;stroke:#FFFFFF;stroke-miterlimit:10;" d="M-1330.667,173.14c0,3.917-9.297,6.718-20.615,6.262
		c-11.157-0.45-20.084-3.903-20.084-7.72s8.928-6.631,20.084-6.281C-1339.964,165.756-1330.667,169.223-1330.667,173.14z"/>
	<path style="fill:none;stroke:#FFFFFF;stroke-miterlimit:10;" d="M-1386.055,132.984c0,0-2.501,6.821-5.002,7.048
		s-5.457-3.638-5.457-10.914c0-7.276,2.728-15.916,12.051-20.463c9.322-4.547,12.96,1.592,12.96,1.592"/>
	<path style="fill:#FFFFFF;stroke:#FFFFFF;stroke-miterlimit:10;" d="M-1028.272,126.971h-49.392
		c-3.652,2.899-6.624,6.575-8.683,10.744c-2.059,4.169-3.204,8.833-3.204,13.71c0,10.056,4.87,18.985,12.575,25.107
		c1.122,0.891,2.303,1.676,3.539,2.439c5.842,3.606,12.886,5.69,20.47,5.69c20.204,0,36.583-14.782,36.583-33.225
		C-1016.384,141.683-1020.967,132.77-1028.272,126.971z"/>
	<path style="fill:none;stroke:#FFFFFF;stroke-miterlimit:10;" d="M-1076.759,120.471"/>
	<g id="XMLID_4_">
		<g>
			<path style="fill:#FFFFFF;" d="M-1059.218,106.724h11.17c0,2.35-2.05,9.253-2.05,9.253l-7.5,0.052L-1059.218,106.724z"/>
		</g>
		<g>
			<path style="fill:none;stroke:#FFFFFF;stroke-miterlimit:10;" d="M-1048.048,106.724c0,2.35-2.05,9.253-2.05,9.253l-7.5,0.052
				l-1.62-9.305H-1048.048z"/>
		</g>
	</g>
	<g id="XMLID_3_">
		<g>
			<path style="fill:#FFFFFF;" d="M-1052.847,118.717c28.42,0,21.94,5.03,21.94,5.03h-44
				C-1074.907,123.747-1081.267,118.717-1052.847,118.717z"/>
		</g>
		<g>
		</g>
	</g>
	<path style="fill:#FFFFFF;stroke:#FFFFFF;stroke-miterlimit:10;" d="M-1033.833,183.776c-5.567,3.099-12.119,4.884-19.135,4.884
		c-7.369,0-14.219-1.98-19.961-5.4c-0.283,0.455-0.437,0.93-0.437,1.422c0,3.817,8.928,7.27,20.084,7.72
		c11.318,0.456,20.615-2.345,20.615-6.262C-1032.667,185.324-1033.091,184.53-1033.833,183.776z"/>
</g>
<g id="accessories">
	<path style="fill:#FFFFFF;" d="M-1364.464,124.759c-1.937,0-3.288,0.905-4.061,2.167c-0.591,0.139-1.118,0.364-1.564,0.674
		c-5.623,0.407-5.502,9.98,0.371,9.98c1.049,0,1.909-0.31,2.592-0.814c0.011,0,0.02-0.002,0.031-0.003
		c0.072,0.003,0.14,0.01,0.213,0.01c2.018,0,3.405-0.98,4.16-2.326C-1358.1,132.814-1358.668,124.759-1364.464,124.759z"/>
	<path style="fill:#231F20;" d="M-1368.718,126.775c-6,0-6,10,0,10C-1361.718,136.775-1361.718,126.775-1368.718,126.775z"/>
	<path style="fill:#231F20;" d="M-1342.718,127.178c-6,0-6,10,0,10S-1336.718,127.178-1342.718,127.178z"/>
	<path style="fill:#231F20;stroke:#231F20;stroke-width:0.5;stroke-miterlimit:10;" d="M-1336.247,155.555
		c0,1.337-8.55,2.213-18.97,1.958c-10.282-0.251-18.519-1.511-18.519-2.816c0-1.306,8.236-2.188,18.519-1.968
		C-1344.797,152.951-1336.247,154.218-1336.247,155.555z"/>
	<path style="fill:#231F20;stroke:#231F20;stroke-width:0.5;stroke-miterlimit:10;" d="M-1335.441,158.606
		c0,1.656-4.465,2.879-9.938,2.733c-5.435-0.145-9.814-1.588-9.814-3.223s4.379-2.861,9.814-2.736
		C-1339.906,155.505-1335.441,156.95-1335.441,158.606z"/>
	<path style="fill:#231F20;" d="M-1021.12,167.171"/>
	<path style="fill:none;stroke:#FFFFFF;stroke-width:8;stroke-miterlimit:10;" d="M-1082.829,166.869"/>
	<path style="fill:none;stroke:#FFFFFF;stroke-width:6;stroke-miterlimit:10;" d="M-1015.964,163.726
		c1.458,0.67,3.028,1.069,4.676,1.1c7.521,0.144,13.656-7.035,13.656-16.035s-6.135-16.323-13.656-16.356
		c-2.562-0.011-4.945,0.842-6.981,2.306"/>
	
		<ellipse style="fill:#FFFFFF;stroke:#FFFFFF;stroke-width:0.25;stroke-miterlimit:10;" cx="-1053.666" cy="106.127" rx="6.01" ry="1.906"/>
	<path style="fill:none;stroke:#FFFFFF;stroke-width:7;stroke-miterlimit:10;" d="M-1088.218,103.138
		c-18-0.059-32.25,13.093-32.25,29.377c0,14.285,11.146,26.608,25.962,29.533"/>
	<path style="fill:#FFFFFF;stroke:#FFFFFF;stroke-width:0.25;stroke-miterlimit:10;" d="M-1096.28,165.034
		c6.188,2.25,11.438,6.938,11.438,6.938s-4.338-5.558-5.214-7.75c-0.52-1.302-1.634-5.25-1.634-5.25l-4.152-0.562
		C-1095.843,158.409-1101.082,163.288-1096.28,165.034z"/>
	<circle style="fill:#FFFFFF;stroke:#FFFFFF;stroke-width:0.25;stroke-miterlimit:10;" cx="-1087.968" cy="103.221" r="4.5"/>
	<path style="fill:#FFFFFF;stroke:#FFFFFF;stroke-width:0.25;stroke-miterlimit:10;" d="M-1091.53,159.534
		c-2.25-13,1.062-18.562,1.062-18.562s-29.625,14.75-26.333-12.75l-3.417,11.625l12.125,15.75l16.402,3.375"/>
	<polygon style="fill:#FFFFFF;stroke:#FFFFFF;stroke-width:0.25;stroke-miterlimit:10;" points="-1108.093,160.096 
		-1084.843,171.971 -1099.905,155.846 	"/>
	<circle style="fill:#FFFFFF;stroke:#FFFFFF;stroke-width:0.25;stroke-miterlimit:10;" cx="-1034.718" cy="113.471" r="2.5"/>
	<circle style="fill:#FFFFFF;stroke:#FFFFFF;stroke-width:0.25;stroke-miterlimit:10;" cx="-1028.718" cy="110.471" r="2.5"/>
	<circle style="fill:#FFFFFF;stroke:#FFFFFF;stroke-width:0.25;stroke-miterlimit:10;" cx="-1022.843" cy="103.346" r="3.375"/>
	<circle style="fill:#FFFFFF;stroke:#FFFFFF;stroke-width:0.25;stroke-miterlimit:10;" cx="-1029.343" cy="93.846" r="3.875"/>
	<circle style="fill:#FFFFFF;stroke:#FFFFFF;stroke-width:0.25;stroke-miterlimit:10;" cx="-1074.968" cy="80.221" r="12.25"/>
	<circle style="fill:#FFFFFF;stroke:#FFFFFF;stroke-width:0.25;stroke-miterlimit:10;" cx="-1057.968" cy="73.221" r="12.25"/>
	
		<ellipse style="fill:#FFFFFF;stroke:#FFFFFF;stroke-width:0.25;stroke-miterlimit:10;" cx="-1059.968" cy="89.346" rx="12.25" ry="5.125"/>
	<circle style="fill:#FFFFFF;stroke:#FFFFFF;stroke-width:0.25;stroke-miterlimit:10;" cx="-1041.968" cy="80.221" r="12.25"/>
	<path style="fill:#FFFFFF;stroke:#FFFFFF;stroke-width:0.25;stroke-miterlimit:10;" d="M-1114.051,120.971
		c0,0-6.917,27.75,23.583,20l-14.917,10.833l-17-15.833L-1114.051,120.971z"/>
</g>
<g id="eyes_x5F_mouth">
	<ellipse style="fill:#231F20;stroke:#FFFFFF;stroke-miterlimit:10;" cx="-1059.968" cy="150.596" rx="6" ry="6.375"/>
	<ellipse style="fill:#FFFFFF;stroke:#FFFFFF;stroke-miterlimit:10;" cx="-1060.718" cy="147.346" rx="2.25" ry="2.625"/>
	<ellipse style="fill:#231F20;stroke:#FFFFFF;stroke-miterlimit:10;" cx="-1043.968" cy="150.596" rx="6" ry="6.375"/>
	<ellipse style="fill:#FFFFFF;stroke:#FFFFFF;stroke-miterlimit:10;" cx="-1044.718" cy="147.346" rx="2.25" ry="2.625"/>
	<path style="fill:#231F20;stroke:#FFFFFF;stroke-width:0.25;stroke-miterlimit:10;" d="M-1067.738,144.775
		c1.343-2.334,0.266-10.56,9.421-7.433"/>
	<path style="fill:#231F20;stroke:#FFFFFF;stroke-width:0.25;stroke-miterlimit:10;" d="M-1042.718,137.471c2,2.5,9-8,9,8"/>
	<path style="fill:#231F20;stroke:#FFFFFF;stroke-miterlimit:10;" d="M-981.718,189.596"/>
	<path style="fill:#231F20;stroke:#FFFFFF;stroke-width:0.25;stroke-miterlimit:10;" d="M-1037.343,167.721"/>
	<path style="fill:#231F20;stroke:#FFFFFF;stroke-width:0.25;stroke-miterlimit:10;" d="M-1062.968,167.096l26.625-0.625
		c0,0,4.875,2.625,0.375,6.375S-1062.968,167.096-1062.968,167.096z"/>
	<polygon style="fill:#231F20;" points="-576.2,174.497 -576.297,87.053 -500.617,43.248 -424.84,86.885 -424.743,174.329 
		-500.423,218.135 	"/>
	<path style="fill:#FFFFFF;stroke:#FFFFFF;stroke-miterlimit:10;" d="M-472.272,120.971h-49.392
		c-3.652,2.899-6.624,6.575-8.683,10.744c-2.059,4.169-3.204,8.833-3.204,13.71c0,10.056,4.87,18.985,12.575,25.107
		c1.122,0.891,2.303,1.676,3.539,2.439c5.842,3.606,12.886,5.69,20.47,5.69c20.204,0,36.583-14.782,36.583-33.225
		C-460.384,135.683-464.967,126.77-472.272,120.971z"/>
	<path style="fill:none;stroke:#FFFFFF;stroke-miterlimit:10;" d="M-520.759,114.471"/>
	<g id="XMLID_5_">
		<g>
			<path style="fill:#FFFFFF;" d="M-503.214,100.72h11.17c0,2.35-2.05,9.253-2.05,9.253l-7.5,0.052L-503.214,100.72z"/>
		</g>
		<g>
			<path style="fill:none;stroke:#FFFFFF;stroke-miterlimit:10;" d="M-492.044,100.72c0,2.35-2.05,9.253-2.05,9.253l-7.5,0.052
				l-1.62-9.305H-492.044z"/>
		</g>
	</g>
	<g id="XMLID_2_">
		<g>
			<path style="fill:#FFFFFF;" d="M-496.843,112.72c28.42,0,21.94,5.03,21.94,5.03h-44
				C-518.903,117.75-525.263,112.72-496.843,112.72z"/>
		</g>
		<g>
		</g>
	</g>
	<path style="fill:#FFFFFF;stroke:#FFFFFF;stroke-miterlimit:10;" d="M-477.833,177.776c-5.567,3.099-12.119,4.884-19.135,4.884
		c-7.369,0-14.219-1.98-19.961-5.4c-0.283,0.455-0.437,0.93-0.437,1.422c0,3.817,8.928,7.27,20.084,7.72
		c11.318,0.456,20.615-2.345,20.615-6.262C-476.667,179.324-477.091,178.53-477.833,177.776z"/>
	<path style="fill:#231F20;" d="M-465.12,161.171"/>
	<path style="fill:none;stroke:#FFFFFF;stroke-width:8;stroke-miterlimit:10;" d="M-526.829,160.869"/>
	<path style="fill:none;stroke:#FFFFFF;stroke-width:6;stroke-miterlimit:10;" d="M-459.964,157.726
		c1.458,0.67,3.028,1.069,4.676,1.1c7.521,0.144,13.656-7.035,13.656-16.035s-6.135-16.323-13.656-16.356
		c-2.562-0.011-4.945,0.842-6.981,2.306"/>
	
		<ellipse style="fill:#FFFFFF;stroke:#FFFFFF;stroke-width:0.25;stroke-miterlimit:10;" cx="-497.666" cy="100.127" rx="6.01" ry="1.906"/>
	<path style="fill:none;stroke:#FFFFFF;stroke-width:7;stroke-miterlimit:10;" d="M-532.218,97.138
		c-18-0.059-32.25,13.093-32.25,29.377c0,14.285,11.146,26.608,25.962,29.533"/>
	<path style="fill:#FFFFFF;stroke:#FFFFFF;stroke-width:0.25;stroke-miterlimit:10;" d="M-540.28,159.034
		c6.188,2.25,11.438,6.938,11.438,6.938s-4.338-5.558-5.214-7.75c-0.52-1.302-1.634-5.25-1.634-5.25l-4.151-0.562
		C-539.843,152.409-545.082,157.288-540.28,159.034z"/>
	<circle style="fill:#FFFFFF;stroke:#FFFFFF;stroke-width:0.25;stroke-miterlimit:10;" cx="-531.968" cy="97.221" r="4.5"/>
	<circle style="fill:#FFFFFF;stroke:#FFFFFF;stroke-width:0.25;stroke-miterlimit:10;" cx="-478.718" cy="107.471" r="2.5"/>
	<circle style="fill:#FFFFFF;stroke:#FFFFFF;stroke-width:0.25;stroke-miterlimit:10;" cx="-472.718" cy="104.471" r="2.5"/>
	<circle style="fill:#FFFFFF;stroke:#FFFFFF;stroke-width:0.25;stroke-miterlimit:10;" cx="-466.843" cy="97.346" r="3.375"/>
	<circle style="fill:#FFFFFF;stroke:#FFFFFF;stroke-width:0.25;stroke-miterlimit:10;" cx="-473.343" cy="87.846" r="3.875"/>
	<path style="fill:#FFFFFF;stroke:#FFFFFF;stroke-width:0.25;stroke-miterlimit:10;" d="M-485.968,61.971
		c-1.615,0-3.152,0.32-4.564,0.888c-1.76-4.609-6.209-7.888-11.436-7.888c-5.373,0-9.927,3.464-11.579,8.277
		c-1.636-0.81-3.472-1.277-5.421-1.277c-6.766,0-12.25,5.484-12.25,12.25s5.484,12.25,12.25,12.25c1.463,0,2.86-0.27,4.161-0.74
		c2.052,1.629,6.132,2.74,10.839,2.74c5.596,0,10.305-1.572,11.77-3.716c1.827,1.083,3.952,1.716,6.23,1.716
		c6.766,0,12.25-5.484,12.25-12.25S-479.202,61.971-485.968,61.971z M-497.215,79.072c-0.292-0.081-0.59-0.158-0.899-0.228
		c0.24-0.08,0.477-0.166,0.711-0.26C-497.341,78.746-497.284,78.912-497.215,79.072z M-507.389,78.194
		c0.132,0.065,0.263,0.131,0.397,0.191c-0.162,0.017-0.327,0.032-0.486,0.052C-507.448,78.356-507.417,78.276-507.389,78.194z"/>
	<path style="fill:#FFFFFF;stroke:#FFFFFF;stroke-width:0.25;stroke-miterlimit:10;" d="M-528.843,165.971l-13.403-14.349
		l6.555,1.349l0.161,0.562c-2.25-13,1.062-18.562,1.062-18.562c-30.5,7.75-23.583-20-23.583-20l-8.333,15l2.595,2.417l-0.428,1.458
		l12.125,15.75l6.208,1.277l-6.208,3.223L-528.843,165.971z"/>
	<ellipse style="fill:#231F20;stroke:#FFFFFF;stroke-miterlimit:10;" cx="-503.968" cy="144.596" rx="6" ry="6.375"/>
	<ellipse style="fill:#FFFFFF;stroke:#FFFFFF;stroke-miterlimit:10;" cx="-504.718" cy="141.346" rx="2.25" ry="2.625"/>
	<ellipse style="fill:#231F20;stroke:#FFFFFF;stroke-miterlimit:10;" cx="-487.968" cy="144.596" rx="6" ry="6.375"/>
	<ellipse style="fill:#FFFFFF;stroke:#FFFFFF;stroke-miterlimit:10;" cx="-488.718" cy="141.346" rx="2.25" ry="2.625"/>
	<path style="fill:#231F20;stroke:#FFFFFF;stroke-width:0.25;stroke-miterlimit:10;" d="M-511.738,138.775
		c1.343-2.334,0.266-10.56,9.421-7.433"/>
	<path style="fill:#231F20;stroke:#FFFFFF;stroke-width:0.25;stroke-miterlimit:10;" d="M-486.718,131.471c2,2.5,9-8,9,8"/>
	<path style="fill:#231F20;stroke:#FFFFFF;stroke-miterlimit:10;" d="M-425.718,183.596"/>
	<path style="fill:#231F20;stroke:#FFFFFF;stroke-width:0.25;stroke-miterlimit:10;" d="M-481.343,161.721"/>
	<path style="fill:#231F20;stroke:#FFFFFF;stroke-width:0.25;stroke-miterlimit:10;" d="M-506.968,161.096l26.625-0.625
		c0,0,4.875,2.625,0.375,6.375S-506.968,161.096-506.968,161.096z"/>
	<polygon style="fill:#231F20;" points="-404.646,118.676 -404.743,31.233 -329.064,-12.573 -253.287,31.065 -253.19,118.509 
		-328.87,162.314 	"/>
	<path style="fill:none;stroke:#FFFFFF;stroke-miterlimit:10;" d="M-349.206,58.651"/>
	<path style="fill:#231F20;" d="M-293.566,105.351"/>
	<path style="fill:none;stroke:#FFFFFF;stroke-width:8;stroke-miterlimit:10;" d="M-355.275,105.048"/>
	<path style="fill:#FFFFFF;stroke:#FFFFFF;stroke-width:0.25;stroke-miterlimit:10;" d="M-368.727,103.213
		c6.188,2.25,11.438,6.938,11.438,6.938s-4.338-5.558-5.214-7.75c-0.52-1.302-1.634-5.25-1.634-5.25l-4.152-0.562
		C-368.289,96.588-373.528,101.467-368.727,103.213z"/>
	<circle style="fill:#FFFFFF;stroke:#FFFFFF;stroke-width:0.25;stroke-miterlimit:10;" cx="-360.414" cy="41.401" r="4.5"/>
	<path style="fill:#231F20;stroke:#FFFFFF;stroke-miterlimit:10;" d="M-254.164,127.776"/>
	<path style="fill:#231F20;stroke:#FFFFFF;stroke-width:0.25;stroke-miterlimit:10;" d="M-309.789,105.901"/>
	<g>
		<path style="fill:#FFFFFF;stroke:#FFFFFF;stroke-miterlimit:10;" d="M-300.718,64.971h-49.392c-3.652,3-6.624,6.664-8.683,10.834
			c-2.059,4.169-3.204,8.878-3.204,13.754c0,10.056,4.87,19.007,12.575,25.129c1.122,0.891,2.303,1.687,3.539,2.45
			c5.842,3.606,12.886,5.696,20.47,5.696c20.204,0,36.583-14.869,36.583-33.312C-288.831,79.77-293.414,70.971-300.718,64.971z"/>
		<g id="XMLID_7_">
			<g>
				<path style="fill:#FFFFFF;" d="M-331.661,44.9h11.17c0,2.35-2.05,9.253-2.05,9.253l-7.5,0.052L-331.661,44.9z"/>
			</g>
			<g>
				<path style="fill:none;stroke:#FFFFFF;stroke-miterlimit:10;" d="M-320.491,44.9c0,2.35-2.05,9.253-2.05,9.253l-7.5,0.052
					l-1.62-9.305H-320.491z"/>
			</g>
		</g>
		<g id="XMLID_6_">
			<g>
				<path style="fill:#FFFFFF;" d="M-325.29,56.9c28.42,0,21.94,5.03,21.94,5.03h-44C-347.35,61.93-353.71,56.9-325.29,56.9z"/>
			</g>
			<g>
			</g>
		</g>
		<path style="fill:#FFFFFF;stroke:#FFFFFF;stroke-miterlimit:10;" d="M-306.279,121.956c-5.567,3.099-12.119,4.884-19.135,4.884
			c-7.369,0-14.219-1.98-19.961-5.4c-0.283,0.455-0.437,0.93-0.437,1.422c0,3.817,8.928,7.27,20.084,7.72
			c11.318,0.456,20.615-2.345,20.615-6.262C-305.113,123.503-305.537,122.709-306.279,121.956z"/>
		<path style="fill:none;stroke:#FFFFFF;stroke-width:6;stroke-miterlimit:10;" d="M-288.41,101.905
			c1.458,0.67,3.028,1.069,4.676,1.1c7.521,0.144,13.656-7.035,13.656-16.035s-6.135-16.323-13.656-16.356
			c-2.562-0.011-4.945,0.842-6.981,2.306"/>
		
			<ellipse style="fill:#FFFFFF;stroke:#FFFFFF;stroke-width:0.25;stroke-miterlimit:10;" cx="-326.112" cy="44.307" rx="6.01" ry="1.906"/>
		<path style="fill:none;stroke:#FFFFFF;stroke-width:7;stroke-miterlimit:10;" d="M-360.664,41.317
			c-18-0.059-32.25,13.093-32.25,29.377c0,14.285,11.146,26.608,25.962,29.533"/>
		<circle style="fill:#FFFFFF;stroke:#FFFFFF;stroke-width:0.25;stroke-miterlimit:10;" cx="-307.164" cy="51.651" r="2.5"/>
		<circle style="fill:#FFFFFF;stroke:#FFFFFF;stroke-width:0.25;stroke-miterlimit:10;" cx="-301.164" cy="48.651" r="2.5"/>
		<circle style="fill:#FFFFFF;stroke:#FFFFFF;stroke-width:0.25;stroke-miterlimit:10;" cx="-295.289" cy="41.526" r="3.375"/>
		<circle style="fill:#FFFFFF;stroke:#FFFFFF;stroke-width:0.25;stroke-miterlimit:10;" cx="-301.789" cy="32.026" r="3.875"/>
		<path style="fill:#FFFFFF;stroke:#FFFFFF;stroke-width:0.25;stroke-miterlimit:10;" d="M-314.414,6.151
			c-1.615,0-3.152,0.32-4.564,0.888c-1.76-4.609-6.209-7.888-11.436-7.888c-5.373,0-9.927,3.464-11.579,8.277
			c-1.636-0.81-3.472-1.277-5.421-1.277c-6.766,0-12.25,5.484-12.25,12.25s5.484,12.25,12.25,12.25c1.463,0,2.86-0.27,4.161-0.74
			c2.052,1.629,6.132,2.74,10.839,2.74c5.596,0,10.305-1.572,11.77-3.716c1.827,1.083,3.952,1.716,6.23,1.716
			c6.766,0,12.25-5.484,12.25-12.25S-307.649,6.151-314.414,6.151z M-325.662,23.251c-0.292-0.081-0.59-0.158-0.899-0.228
			c0.24-0.08,0.477-0.166,0.711-0.26C-325.788,22.926-325.731,23.092-325.662,23.251z M-335.836,22.373
			c0.132,0.065,0.263,0.131,0.397,0.191c-0.162,0.017-0.327,0.032-0.486,0.052C-335.895,22.536-335.864,22.455-335.836,22.373z"/>
		<path style="fill:#FFFFFF;stroke:#FFFFFF;stroke-width:0.25;stroke-miterlimit:10;" d="M-357.289,110.151l-13.403-14.349
			l6.555,1.349l0.161,0.562c-2.25-13,1.062-18.562,1.062-18.562c-30.5,7.75-23.583-20-23.583-20l-8.333,15l2.595,2.417l-0.428,1.458
			l12.125,15.75l6.208,1.277l-6.208,3.223L-357.289,110.151z"/>
		<ellipse style="fill:#231F20;stroke:#FFFFFF;stroke-miterlimit:10;" cx="-332.414" cy="88.776" rx="6" ry="6.375"/>
		<ellipse style="fill:#FFFFFF;stroke:#FFFFFF;stroke-miterlimit:10;" cx="-333.164" cy="85.526" rx="2.25" ry="2.625"/>
		<ellipse style="fill:#231F20;stroke:#FFFFFF;stroke-miterlimit:10;" cx="-316.414" cy="88.776" rx="6" ry="6.375"/>
		<ellipse style="fill:#FFFFFF;stroke:#FFFFFF;stroke-miterlimit:10;" cx="-317.164" cy="85.526" rx="2.25" ry="2.625"/>
		<path style="fill:#231F20;stroke:#FFFFFF;stroke-width:0.25;stroke-miterlimit:10;" d="M-340.184,82.954
			c1.343-2.334,0.266-10.56,9.421-7.433"/>
		<path style="fill:#231F20;stroke:#FFFFFF;stroke-width:0.25;stroke-miterlimit:10;" d="M-315.164,75.651c2,2.5,9-8,9,8"/>
		<path style="fill:#231F20;stroke:#FFFFFF;stroke-width:0.25;stroke-miterlimit:10;" d="M-335.414,105.276l26.625-0.625
			c0,0,4.875,2.625,0.375,6.375S-335.414,105.276-335.414,105.276z"/>
	</g>
	<circle style="fill:#231F20;" cx="80.957" cy="80.957" r="80.957"/>
	<g>
		<g>
			<path style="fill:#FFFFFF;stroke:#FFFFFF;stroke-miterlimit:10;" d="M111.971,76.971H62.579c-3.652,3-6.624,6.51-8.683,10.679
				c-2.059,4.169-3.204,8.801-3.204,13.677c0,10.056,4.87,18.969,12.575,25.091c1.122,0.891,2.303,1.668,3.539,2.431
				c5.842,3.606,12.886,5.686,20.47,5.686c20.204,0,36.583-14.72,36.583-33.162C123.858,91.62,119.275,82.971,111.971,76.971z"/>
			<g id="XMLID_9_">
				<g>
					<path style="fill:#FFFFFF;" d="M90.151,65.849l-7.5,0.052l-1.62-9.305h11.17C92.201,58.946,90.151,65.849,90.151,65.849z"/>
				</g>
				<g>
					<path style="fill:none;stroke:#FFFFFF;stroke-miterlimit:10;" d="M92.201,56.596c0,2.35-2.05,9.253-2.05,9.253l-7.5,0.052
						l-1.62-9.305H92.201z"/>
				</g>
			</g>
			<g id="XMLID_8_">
				<g>
					<path style="fill:#FFFFFF;" d="M109.342,73.618h-44c0,0-6.36-5.03,22.06-5.03S109.342,73.618,109.342,73.618z"/>
				</g>
				<g>
				</g>
			</g>
			<path style="fill:#FFFFFF;stroke:#FFFFFF;stroke-miterlimit:10;" d="M106.41,133.647c-5.567,3.099-12.119,4.884-19.135,4.884
				c-7.369,0-14.219-1.98-19.961-5.4c-0.283,0.455-0.437,0.93-0.437,1.422c0,3.817,8.928,7.27,20.084,7.72
				c11.318,0.456,20.615-2.345,20.615-6.262C107.576,135.194,107.152,134.4,106.41,133.647z"/>
			<path style="fill:none;stroke:#FFFFFF;stroke-width:6;stroke-miterlimit:10;" d="M124.279,113.596
				c1.458,0.67,3.028,1.069,4.676,1.1c7.521,0.144,13.656-7.035,13.656-16.035s-6.135-16.323-13.656-16.356
				c-2.562-0.011-4.945,0.842-6.981,2.306"/>
			
				<ellipse style="fill:#FFFFFF;stroke:#FFFFFF;stroke-width:0.25;stroke-miterlimit:10;" cx="86.577" cy="55.998" rx="6.01" ry="1.906"/>
			<path style="fill:none;stroke:#FFFFFF;stroke-width:7;stroke-miterlimit:10;" d="M52.025,53.008
				c-18-0.059-32.25,13.093-32.25,29.377c0,14.285,11.146,26.608,25.962,29.533"/>
			<circle style="fill:#FFFFFF;stroke:#FFFFFF;stroke-width:0.25;stroke-miterlimit:10;" cx="105.525" cy="63.341" r="2.5"/>
			<circle style="fill:#FFFFFF;stroke:#FFFFFF;stroke-width:0.25;stroke-miterlimit:10;" cx="111.525" cy="60.341" r="2.5"/>
			<circle style="fill:#FFFFFF;stroke:#FFFFFF;stroke-width:0.25;stroke-miterlimit:10;" cx="117.4" cy="53.216" r="3.375"/>
			<circle style="fill:#FFFFFF;stroke:#FFFFFF;stroke-width:0.25;stroke-miterlimit:10;" cx="110.9" cy="43.716" r="3.875"/>
			<path style="fill:#FFFFFF;stroke:#FFFFFF;stroke-width:0.25;stroke-miterlimit:10;" d="M98.275,17.841
				c-1.615,0-3.152,0.32-4.564,0.888c-1.76-4.609-6.209-7.888-11.436-7.888c-5.373,0-9.927,3.464-11.579,8.277
				c-1.636-0.81-3.472-1.277-5.421-1.277c-6.766,0-12.25,5.484-12.25,12.25s5.484,12.25,12.25,12.25c1.463,0,2.86-0.27,4.161-0.74
				c2.052,1.629,6.132,2.74,10.839,2.74c5.596,0,10.305-1.572,11.77-3.716c1.827,1.083,3.952,1.716,6.23,1.716
				c6.766,0,12.25-5.484,12.25-12.25S105.04,17.841,98.275,17.841z M87.027,34.942c-0.292-0.081-0.59-0.158-0.899-0.228
				c0.24-0.08,0.477-0.166,0.711-0.26C86.901,34.617,86.958,34.782,87.027,34.942z M76.853,34.064
				c0.132,0.065,0.263,0.131,0.397,0.191c-0.162,0.017-0.327,0.032-0.486,0.052C76.794,34.226,76.825,34.146,76.853,34.064z"/>
			<path style="fill:#FFFFFF;stroke:#FFFFFF;stroke-width:0.25;stroke-miterlimit:10;" d="M55.4,121.841l-13.403-14.349l6.555,1.349
				l0.161,0.562c-2.25-13,1.062-18.562,1.062-18.562c-30.5,7.75-23.583-20-23.583-20l-8.333,15l2.595,2.417l-0.428,1.458
				l12.125,15.75l6.208,1.277l-6.208,3.223L55.4,121.841z"/>
			<ellipse style="fill:#231F20;stroke:#FFFFFF;stroke-miterlimit:10;" cx="80.275" cy="100.466" rx="6" ry="6.375"/>
			<ellipse style="fill:#FFFFFF;stroke:#FFFFFF;stroke-miterlimit:10;" cx="79.525" cy="97.216" rx="2.25" ry="2.625"/>
			<ellipse style="fill:#231F20;stroke:#FFFFFF;stroke-miterlimit:10;" cx="96.275" cy="100.466" rx="6" ry="6.375"/>
			<ellipse style="fill:#FFFFFF;stroke:#FFFFFF;stroke-miterlimit:10;" cx="95.525" cy="97.216" rx="2.25" ry="2.625"/>
			<path style="fill:#231F20;stroke:#FFFFFF;stroke-width:0.25;stroke-miterlimit:10;" d="M72.505,94.645
				c1.343-2.334,0.266-10.56,9.421-7.433"/>
			<path style="fill:#231F20;stroke:#FFFFFF;stroke-width:0.25;stroke-miterlimit:10;" d="M97.525,87.341c2,2.5,9-8,9,8"/>
			<path style="fill:#231F20;stroke:#FFFFFF;stroke-width:0.25;stroke-miterlimit:10;" d="M77.275,116.966l26.625-0.625
				c0,0,4.875,2.625,0.375,6.375S77.275,116.966,77.275,116.966z"/>
		</g>
		<path style="fill:#FFFFFF;stroke:#FFFFFF;stroke-width:0.25;stroke-miterlimit:10;" d="M43.962,114.904
			c6.188,2.25,11.438,6.938,11.438,6.938s-4.338-5.558-5.214-7.75c-0.52-1.302-1.634-5.25-1.634-5.25l-4.152-0.562
			C44.4,108.279,39.161,113.158,43.962,114.904z"/>
	</g>
</g>
</svg>
